<?xml version="1.0" encoding="UTF-8" standalone="no"?>
<svg width="36px" height="34px" viewBox="0 0 36 34" version="1.1" xmlns="http://www.w3.org/2000/svg" xmlns:xlink="http://www.w3.org/1999/xlink">
    <!-- Generator: Sketch 3.8.3 (29802) - http://www.bohemiancoding.com/sketch -->
    <title>Comment</title>
    <desc>Created with Sketch.</desc>
    <defs></defs>
    <g id="Symbols" stroke="none" stroke-width="1" fill="none" fill-rule="evenodd">
        <g id="Tool-Bar" transform="translate(-43.000000, -612.000000)" fill="#313131">
            <path d="M61.1960964,622.485074 C59.8056161,622.485735 58.6821566,623.604721 58.6821566,624.989203 C58.6819923,626.367408 59.8169542,627.502254 61.1956034,627.502419 C62.5635718,627.502419 63.703299,626.344609 63.6886745,624.969378 C63.6742143,623.593817 62.561107,622.484413 61.1960964,622.485074 M52.5829073,622.487056 C51.1850326,622.491022 50.0743901,623.606042 50.076362,625.003742 C50.0783338,626.36493 51.2077088,627.494985 52.5727194,627.501759 C53.9472606,627.508698 55.0925747,626.352704 55.0767999,624.974334 C55.0608608,623.586217 53.955148,622.483257 52.5829073,622.487056 M69.7811867,622.48623 C68.3882416,622.493665 67.2739841,623.621903 67.2899232,625.008864 C67.3060266,626.398303 68.4339227,627.509358 69.8212809,627.502254 C71.1701881,627.49515 72.3012063,626.346756 72.295948,624.989203 C72.2905255,623.596295 71.1678876,622.478961 69.7811867,622.48623 M54.0253129,645.794774 L54.0253129,637.692411 C53.8128464,637.692411 53.63423,637.696376 53.4556136,637.69175 C52.2218951,637.659368 50.97043,637.746931 49.7577445,637.568336 C46.4521084,637.081454 43.9771126,634.1975 43.9384973,630.819561 C43.8942951,626.960026 43.8896941,623.09917 43.93784,619.239635 C43.9864789,615.340284 47.0780053,612.344316 51.008881,612.333082 C56.5177266,612.317221 62.0267367,612.328456 67.5357467,612.328125 C68.7323288,612.328125 69.9287465,612.325151 71.1251643,612.329612 C74.7885261,612.34382 77.6071161,614.760883 78.1889751,618.396224 C78.2448441,618.74631 78.2484592,619.107465 78.2487878,619.463498 C78.2528958,623.164924 78.2609475,626.866516 78.2486235,630.567777 C78.2372854,634.017088 76.0189582,636.813975 72.7164443,637.533806 C72.1697499,637.65309 71.5952853,637.681837 71.0333091,637.685306 C68.5353084,637.701002 66.0369791,637.696045 63.5389785,637.686959 C63.2445161,637.685967 63.0246552,637.765104 62.8006863,637.966333 C59.9676361,640.511931 57.1252196,643.04679 54.2846107,645.583962 C54.2266055,645.635674 54.1639994,645.682264 54.0253129,645.794774" id="Comment"></path>
        </g>
    </g>
</svg>