<?xml version="1.0" encoding="UTF-8" standalone="no"?>
<svg width="34px" height="34px" viewBox="0 0 34 34" version="1.1" xmlns="http://www.w3.org/2000/svg" xmlns:xlink="http://www.w3.org/1999/xlink">
    <!-- Generator: Sketch 3.8.3 (29802) - http://www.bohemiancoding.com/sketch -->
    <title>Draw</title>
    <desc>Created with Sketch.</desc>
    <defs></defs>
    <g id="Symbols" stroke="none" stroke-width="1" fill="none" fill-rule="evenodd">
        <g id="Tool-Bar" transform="translate(-44.000000, -425.000000)" fill="#313131">
            <path d="M54.3218822,450.240012 C53.2880912,450.296058 53.2336342,450.23867 53.3307939,449.189894 C53.3380846,449.110297 53.3578736,449.031892 53.3644204,448.952295 C53.5350822,446.890814 53.65828,447.078926 51.723865,447.317867 C51.1325746,447.390757 50.6621015,447.48675 50.4029099,448.125168 C49.6418505,450.000177 48.858175,451.866837 48.0325409,453.713972 C47.7513283,454.343148 47.9975753,454.703572 48.4137401,455.10439 C48.8296074,455.504762 49.170931,455.875023 49.854471,455.559317 C51.3023437,454.890342 52.7508116,454.188127 54.2644493,453.706221 C55.7341942,453.238475 56.489302,452.404641 56.4529973,450.863375 C56.4516582,450.810906 56.4689178,450.75814 56.4776964,450.705522 C56.55224,450.257452 56.3802391,450.045938 55.9121467,450.094829 C55.3827528,450.15013 54.8521687,450.192909 54.3218822,450.240012 M44.7776171,457.964229 C44.8244858,457.822921 44.8909948,457.564006 44.9942549,457.320892 C46.3919855,454.028634 47.7834669,450.733694 49.2085748,447.453361 C49.4158389,446.976225 49.7293388,446.511311 50.0959567,446.142689 C56.787179,439.415376 63.5008685,432.710273 70.1855441,425.976253 C70.7527305,425.404762 71.0831924,425.45738 71.6081225,425.996376 C73.5660464,428.00658 75.5486694,429.993829 77.5568842,431.953652 C78.0931223,432.476847 78.0641083,432.810888 77.5484031,433.32514 C71.6624308,439.19462 65.7946108,445.082435 59.9239638,450.967269 C59.4335529,451.459013 58.9421004,451.951354 58.4786205,452.468289 C57.5375255,453.517512 56.4471945,454.298878 55.1176096,454.835787 C52.0767942,456.06403 49.0829963,457.408836 46.0643505,458.692529 C45.198692,459.060704 44.7503886,458.831601 44.7776171,457.964229" id="Draw"></path>
        </g>
    </g>
</svg>