<?xml version="1.0" encoding="UTF-8" standalone="no"?>
<svg width="39px" height="35px" viewBox="0 0 39 35" version="1.1" xmlns="http://www.w3.org/2000/svg" xmlns:xlink="http://www.w3.org/1999/xlink">
    <!-- Generator: Sketch 3.8.3 (29802) - http://www.bohemiancoding.com/sketch -->
    <title>Milestone</title>
    <desc>Created with Sketch.</desc>
    <defs></defs>
    <g id="Symbols" stroke="none" stroke-width="1" fill="none" fill-rule="evenodd">
        <g id="Tool-Bar" transform="translate(-41.000000, -550.000000)" fill="#313131">
            <path d="M79.6756857,584.137718 L71.8586395,584.137718 C71.4077951,577.964676 70.958577,571.812893 70.5093588,565.661294 C70.4730383,565.649564 70.4367178,565.638019 70.4003972,565.626289 C70.3371525,565.769606 70.2650535,565.909806 70.211928,566.056971 C68.1051563,571.896647 65.9940479,577.734857 63.9067918,583.581864 C63.7430783,584.040219 63.5397918,584.184818 63.0640108,584.175655 C61.3498985,584.143216 59.6345213,584.151647 57.9198668,584.171806 C57.5438318,584.176205 57.3712641,584.067526 57.2353784,583.696041 C55.0973457,577.8505 52.9410625,572.01174 50.788574,566.171514 C50.7235223,565.994843 50.6546759,565.819638 50.5876365,565.643883 C50.5428231,565.646082 50.4980097,565.648282 50.4531963,565.650481 C50.0041589,571.789435 49.5551214,577.928572 49.1026507,584.114993 L41.284701,584.114993 C41.3824593,582.859419 41.475158,581.628219 41.5747232,580.397569 C41.74964,578.233348 41.9287129,576.069677 42.1057981,573.905639 C42.3183003,571.308721 42.531706,568.711986 42.7420399,566.114884 C42.9135234,563.998863 43.0790438,561.882108 43.2503466,559.766087 C43.4608612,557.168985 43.6746283,554.57225 43.8871305,551.975332 C43.8883954,551.959387 43.8907445,551.943443 43.8927322,551.927498 C43.9388105,551.548132 43.8549661,550.987513 44.0631315,550.834117 C44.3399626,550.629955 44.8441133,550.723789 45.2506865,550.722873 C47.7913168,550.716642 50.3317665,550.73002 52.8722161,550.709311 C53.2889084,550.705829 53.4743058,550.834667 53.6230212,551.233093 C55.8727259,557.259337 58.1403198,563.278616 60.4048418,569.299179 C60.4606779,569.447077 60.5284401,569.590576 60.6366789,569.844403 C60.7449177,569.591676 60.8224376,569.430766 60.884056,569.263625 C63.1010542,563.259007 65.3207628,557.255305 67.523305,551.245189 C67.6673222,550.852077 67.8406128,550.705829 68.2647137,550.708944 C70.9797188,550.729837 73.6950852,550.729654 76.4100903,550.709677 C76.8520805,550.706379 77.0103729,550.824953 77.04579,551.287524 C77.340691,555.152479 77.6626969,559.015235 77.9724153,562.878907 C78.2087698,565.828985 78.4341017,568.779978 78.6731667,571.729689 C78.9406015,575.032193 79.2194203,578.33378 79.4901077,581.6361 C79.5569664,582.450363 79.6113568,583.265725 79.6756857,584.137718" id="Milestone"></path>
        </g>
    </g>
</svg>