<?xml version="1.0" encoding="UTF-8" standalone="no"?>
<svg width="40px" height="43px" viewBox="0 0 40 43" version="1.1" xmlns="http://www.w3.org/2000/svg" xmlns:xlink="http://www.w3.org/1999/xlink">
    <!-- Generator: Sketch 3.8.3 (29802) - http://www.bohemiancoding.com/sketch -->
    <title>Shapes</title>
    <desc>Created with Sketch.</desc>
    <defs></defs>
    <g id="Symbols" stroke="none" stroke-width="1" fill="none" fill-rule="evenodd">
        <g id="Tool-Bar" transform="translate(-40.000000, -483.000000)">
            <g id="Shapes" transform="translate(40.411765, 483.490885)">
                <polygon id="Fill-1" fill="#313131" points="17.6631223 25.2946136 28.5714905 6.23977841 39.4796503 25.2946136"></polygon>
                <polygon id="Fill-4" fill="#313131" points="0.104230701 21.0897421 20.7419096 21.0897421 20.7419096 0.276044295 0.104230701 0.276044295"></polygon>
                <path d="M2.63351374,29.6897938 C2.63351374,23.0493833 7.99013794,17.6470724 14.5741829,17.6470724 C21.1584363,17.6470724 26.5150605,23.0493833 26.5150605,29.6897938 C26.5150605,36.3302044 21.1584363,41.7325153 14.5741829,41.7325153 C7.99013794,41.7325153 2.63351374,36.3302044 2.63351374,29.6897938 Z" id="Fill-7" fill="#313131"></path>
                <path d="M14.5742663,17.121558 C7.70275305,17.121558 2.11223516,22.7597575 2.11223516,29.6898779 C2.11223516,36.6199983 7.70275305,42.2581978 14.5742663,42.2581978 C21.4457795,42.2581978 27.0362974,36.6199983 27.0362974,29.6898779 C27.0362974,22.7597575 21.4457795,17.121558 14.5742663,17.121558 M14.5742663,18.1727549 C20.881266,18.1727549 25.9939904,23.3290857 25.9939904,29.6898779 C25.9939904,36.0504599 20.881266,41.2070009 14.5742663,41.2070009 C8.26726653,41.2070009 3.15454217,36.0504599 3.15454217,29.6898779 C3.15454217,23.3290857 8.26726653,18.1727549 14.5742663,18.1727549" id="Stroke" fill="#EFEFEF"></path>
            </g>
        </g>
    </g>
</svg>