<?xml version="1.0" encoding="UTF-8" standalone="no"?>
<svg width="29px" height="35px" viewBox="0 0 29 35" version="1.1" xmlns="http://www.w3.org/2000/svg" xmlns:xlink="http://www.w3.org/1999/xlink">
    <!-- Generator: Sketch 3.8.3 (29802) - http://www.bohemiancoding.com/sketch -->
    <title>Text</title>
    <desc>Created with Sketch.</desc>
    <defs></defs>
    <g id="Symbols" stroke="none" stroke-width="1" fill="none" fill-rule="evenodd">
        <g id="Tool-Bar" transform="translate(-47.000000, -312.000000)" fill="#313131">
            <path d="M57.7644074,315.195564 L54.5585639,315.195564 C53.7844905,315.195564 53.0095138,315.219765 52.2369887,315.185963 C51.8186613,315.167813 51.6368528,315.331427 51.4980125,315.720207 C50.8443275,317.550208 50.1608357,319.369293 49.4877957,321.192061 C49.1228883,322.180188 49.1226302,322.180188 47.96352,322.015785 C47.5609348,318.986037 47.4632562,315.913545 47.3952554,312.774634 L75.1576405,312.774634 C75.1576405,313.650572 75.1937699,314.523223 75.1502855,315.391927 C75.0508005,317.382649 74.9172506,319.371792 74.784991,321.360804 C74.7647327,321.666988 74.8287334,322.081809 74.3422762,322.089569 C73.890142,322.096802 73.4503949,322.196628 73.2248439,321.530993 C72.5592879,319.566445 71.814247,317.629779 71.0810773,315.689694 C71.0092055,315.499644 70.8070096,315.222921 70.6614595,315.220422 C68.7747281,315.188725 66.8873514,315.199379 64.950942,315.199379 L64.950942,343.744189 C65.7830806,343.938053 66.5921222,344.124946 67.4003896,344.315653 C67.6721347,344.379704 67.9443959,344.44415 68.2121409,344.52359 C69.3798963,344.870151 69.3796383,344.87265 69.2011846,346.200236 L53.3437112,346.200236 C53.3437112,345.921803 53.3655179,345.64416 53.3384208,345.371646 C53.3013881,345.000753 53.4370026,344.814517 53.798039,344.727055 C54.8832128,344.46401 55.9554833,344.141517 57.0468507,343.911222 C57.556534,343.803637 57.7703429,343.621215 57.7575686,343.063298 C57.7269876,341.727557 57.7632461,340.390239 57.7635042,339.053577 C57.7653106,331.339926 57.7644074,323.626407 57.7644074,315.912756 L57.7644074,315.195564 Z" id="Text"></path>
        </g>
    </g>
</svg>