<?xml version="1.0" encoding="UTF-8" standalone="no"?>
<svg width="36px" height="35px" viewBox="0 0 36 35" version="1.1" xmlns="http://www.w3.org/2000/svg" xmlns:xlink="http://www.w3.org/1999/xlink">
    <!-- Generator: Sketch 3.8.3 (29802) - http://www.bohemiancoding.com/sketch -->
    <title>Zoom</title>
    <desc>Created with Sketch.</desc>
    <defs></defs>
    <g id="Symbols" stroke="none" stroke-width="1" fill="none" fill-rule="evenodd">
        <g id="Tool-Bar" transform="translate(-43.000000, -669.000000)" fill="#313131">
            <path d="M55.5200356,684.262685 C55.5045607,687.668753 58.2444245,690.480131 61.6002703,690.501823 C64.9440577,690.523515 67.7014061,687.741401 67.7335617,684.313437 C67.7653155,680.925377 65.0145992,678.103563 61.6497096,678.072253 C58.3191864,678.041352 55.5355106,680.852729 55.5200356,684.262685 L55.5200356,684.262685 Z M62.6575888,674.198168 C63.3624008,674.373956 64.0846975,674.49715 64.7690103,674.734536 C69.0294351,676.212872 71.701772,680.20565 71.5247149,684.783091 C71.3398198,689.560263 67.6505599,693.647586 62.9835669,694.271745 C61.0968331,694.523864 59.2876749,694.278293 57.5625234,693.47057 C57.2072033,693.303991 57.0050245,693.349422 56.734113,693.626917 C53.6039599,696.83264 50.4603415,700.024652 47.3197377,703.219734 C47.1887034,703.352956 47.0526447,703.480653 46.9421096,703.588294 C45.6283496,702.247068 44.3336821,700.925488 43.0305737,699.595107 C46.3468278,696.214824 49.7042814,692.79218 53.0577155,689.373834 C52.0936484,687.601017 51.6701984,685.781132 51.7284806,683.827411 C51.8573042,679.511708 55.0370977,675.516679 59.1825661,674.515773 C59.658269,674.400764 60.1381923,674.303559 60.6161059,674.198168 L62.6575888,674.198168 Z M52.1946717,674.240426 L49.4893753,674.240426 L49.4893753,676.991843 L47.2447088,676.991843 L47.2447088,674.264984 L44.5293637,674.264984 L44.5293637,671.937586 L47.2121512,671.937586 L47.2121512,669.175732 L49.4869636,669.175732 L49.4869636,671.925102 L52.1946717,671.925102 L52.1946717,674.240426 Z M78.9543104,697.842959 L71.3330154,697.842959 L71.3330154,695.555671 L78.9543104,695.555671 L78.9543104,697.842959 Z" id="Zoom"></path>
        </g>
    </g>
</svg>